<svg xmlns="http://www.w3.org/2000/svg" width="1335" height="597" viewBox="0 0 1335 597">
<g>
<path d="M 744.36,366.52 L 742.06,363.72 L 737.35,357.99 L 742.06,363.72 M 1335.00,597.00 L 890.00,596.91 L 890.00,153.00 L 1335.00,153.00 M 1014.00,229.00 L 1014.00,521.00 L 1218.00,521.00 L 1218.00,229.00 M 569.90,153.00 L 445.00,153.00 L 445.00,597.00 L 0.00,597.00 L 0.00,153.00 L 124.00,153.00 L 124.00,521.00 L 328.00,521.00 L 328.00,153.00 L 448.95,153.00 L 569.90,153.00 L 670.66,276.50 L 674.12,280.75 L 670.66,276.50 Z" fill="rgba(0,0,0,1)"/>
<path d="M 445.00,375.00 L 445.00,153.00 L 507.45,153.00 L 569.90,153.00 L 670.66,276.50 L 674.12,280.75 L 680.93,289.08 L 684.31,293.22 L 690.92,301.31 L 694.19,305.32 L 700.57,313.12 L 703.73,316.98 L 709.85,324.45 L 712.87,328.14 L 718.68,335.24 L 721.55,338.74 L 727.03,345.43 L 729.73,348.71 L 734.84,354.94 L 737.35,357.99 L 742.06,363.72 L 744.36,366.52 L 748.63,371.71 L 750.70,374.23 L 754.50,378.83 L 756.34,381.06 L 759.63,385.04 L 761.21,386.94 L 763.96,390.26 L 765.26,391.82 L 767.43,394.42 L 768.44,395.63 L 770.00,397.48 L 770.70,398.31 L 771.61,399.36 L 771.80,399.57 L 772.04,399.84 L 772.21,400.00 L 772.24,400.00 L 772.29,399.36 L 772.32,398.94 L 772.37,397.48 L 772.40,396.65 L 772.45,394.42 L 772.47,393.22 L 772.52,390.26 L 772.54,388.69 L 772.59,385.04 L 772.61,383.13 L 772.65,378.83 L 772.67,376.61 L 772.71,371.71 L 772.73,369.19 L 772.77,363.72 L 772.79,360.92 L 772.82,354.94 L 772.84,351.89 L 772.86,345.43 L 772.88,342.14 L 772.90,335.24 L 772.92,331.74 L 772.94,324.45 L 772.95,320.76 L 772.96,313.12 L 772.97,309.26 L 772.98,301.31 L 773.00,276.50 L 773.00,153.00 L 831.50,153.00 L 890.00,153.00 L 890.00,375.00 L 890.00,597.00 L 831.25,596.94 L 772.50,596.88 L 671.65,469.44 L 668.18,465.06 L 661.37,456.46 L 657.99,452.19 L 651.37,443.84 L 648.09,439.70 L 641.71,431.65 L 638.54,427.67 L 632.42,419.96 L 629.40,416.15 L 623.57,408.82 L 620.70,405.21 L 615.21,398.32 L 612.51,394.92 L 607.39,388.50 L 604.88,385.35 L 600.16,379.44 L 597.86,376.55 L 593.58,371.20 L 591.49,368.59 L 587.69,363.84 L 585.85,361.55 L 582.55,357.44 L 580.96,355.47 L 578.21,352.06 L 576.90,350.44 L 574.72,347.75 L 573.71,346.51 L 572.14,344.60 L 571.79,344.17 L 571.21,343.48 L 570.93,343.15 L 570.52,342.66 L 570.33,342.44 L 570.08,342.17 L 569.90,342.00 L 569.87,342.00 L 569.80,342.61 L 569.77,343.01 L 569.71,344.40 L 569.68,345.19 L 569.62,347.34 L 569.59,348.51 L 569.54,351.38 L 569.51,352.90 L 569.46,356.47 L 569.43,358.34 L 569.38,362.57 L 569.36,364.77 L 569.31,369.64 L 569.29,372.15 L 569.25,377.63 L 569.23,380.45 L 569.20,386.50 L 569.18,389.60 L 569.15,396.21 L 569.13,399.58 L 569.10,406.70 L 569.09,410.33 L 569.07,417.95 L 569.06,421.81 L 569.04,429.89 L 569.03,433.98 L 569.02,442.49 L 569.01,446.80 L 569.00,455.71 L 569.00,469.50 L 569.00,597.00 L 507.00,597.00 L 445.00,597.00 L 445.00,375.00 M 479.50,100.87 L 478.54,100.75 L 476.07,100.33 L 474.78,100.10 L 471.91,99.50 L 470.46,99.19 L 467.55,98.50 L 463.50,97.44 L 461.68,96.93 L 458.33,95.82 L 456.71,95.25 L 453.75,94.02 L 452.31,93.39 L 449.71,92.03 L 448.45,91.33 L 446.17,89.82 L 445.07,89.04 L 443.10,87.35 L 442.15,86.48 L 440.45,84.61 L 439.64,83.65 L 438.20,81.56 L 436.29,78.18 L 433.50,72.50 L 433.20,39.16 L 433.17,36.34 L 433.14,31.23 L 433.13,28.76 L 433.13,24.35 L 433.13,22.23 L 433.16,18.52 L 433.18,16.75 L 433.24,13.71 L 433.27,12.28 L 433.35,9.93 L 433.40,8.83 L 433.51,7.14 L 433.57,6.38 L 433.72,5.35 L 433.97,4.54 L 434.13,4.35 L 434.73,4.00 L 435.07,3.84 L 436.00,3.55 L 437.00,3.27 L 439.78,2.88 L 441.27,2.71 L 444.72,2.52 L 446.49,2.45 L 450.23,2.47 L 452.09,2.50 L 455.71,2.71 L 457.46,2.83 L 460.57,3.23 L 461.29,3.34 L 462.58,3.59 L 463.20,3.72 L 464.22,4.02 L 464.69,4.17 L 465.41,4.52 L 466.07,5.08 L 466.13,5.17 L 466.25,6.01 L 466.31,6.52 L 466.42,8.11 L 466.47,9.00 L 466.57,11.27 L 466.62,12.48 L 466.71,15.33 L 466.75,16.83 L 466.82,20.18 L 466.86,21.90 L 466.91,25.66 L 466.93,27.58 L 466.97,31.64 L 466.99,38.00 L 466.99,39.93 L 466.99,43.44 L 467.00,45.14 L 467.00,48.23 L 467.01,49.72 L 467.02,52.40 L 467.02,53.70 L 467.04,56.01 L 467.05,57.13 L 467.08,59.11 L 467.10,60.06 L 467.14,61.75 L 467.18,63.36 L 467.30,65.81 L 467.38,66.93 L 467.58,68.60 L 467.69,69.36 L 467.98,70.50 L 469.26,73.17 L 469.92,74.26 L 471.43,76.20 L 472.21,77.13 L 473.98,78.76 L 474.90,79.53 L 476.97,80.87 L 478.05,81.50 L 480.46,82.55 L 481.71,83.04 L 484.50,83.82 L 485.95,84.18 L 489.15,84.71 L 490.81,84.95 L 494.46,85.25 L 500.50,85.44 L 502.23,85.45 L 505.38,85.38 L 506.91,85.33 L 509.70,85.12 L 511.05,85.01 L 513.52,84.67 L 514.72,84.48 L 516.91,83.99 L 517.98,83.72 L 519.94,83.07 L 520.90,82.72 L 522.68,81.89 L 527.53,78.72 L 528.43,77.97 L 529.92,76.63 L 530.61,75.96 L 531.73,74.53 L 532.24,73.77 L 533.04,71.94 L 533.41,70.95 L 533.94,68.42 L 534.06,67.73 L 534.26,66.16 L 534.36,65.35 L 534.51,63.50 L 534.58,62.54 L 534.69,60.38 L 534.74,59.26 L 534.82,56.74 L 534.85,55.43 L 534.90,52.52 L 534.92,51.01 L 534.95,47.66 L 534.96,45.93 L 534.97,42.11 L 534.98,35.82 L 535.00,4.13 L 537.25,3.40 L 537.51,3.31 L 538.25,3.16 L 538.65,3.09 L 539.63,2.97 L 540.67,2.85 L 543.33,2.70 L 544.72,2.64 L 547.86,2.59 L 549.46,2.57 L 552.75,2.62 L 554.39,2.65 L 557.54,2.78 L 559.06,2.85 L 561.74,3.06 L 562.98,3.18 L 564.87,3.47 L 565.28,3.54 L 565.89,3.71 L 566.47,3.97 L 566.65,4.12 L 566.96,4.59 L 567.10,4.86 L 567.33,5.70 L 567.44,6.19 L 567.60,7.60 L 567.68,8.39 L 567.78,10.55 L 567.83,11.74 L 567.88,14.83 L 567.89,15.67 L 567.90,17.55 L 567.91,18.53 L 567.91,20.72 L 567.91,21.85 L 567.90,24.35 L 567.90,25.64 L 567.88,28.49 L 567.87,29.95 L 567.84,33.16 L 567.80,38.41 L 567.78,40.43 L 567.75,44.11 L 567.73,45.90 L 567.70,49.13 L 567.68,50.69 L 567.64,53.51 L 567.62,54.88 L 567.58,57.32 L 567.56,58.49 L 567.52,60.59 L 567.49,61.60 L 567.44,63.39 L 567.38,65.11 L 567.22,67.78 L 567.14,69.00 L 566.92,70.88 L 566.80,71.75 L 566.49,73.13 L 565.14,76.73 L 564.42,78.31 L 562.50,81.27 L 561.45,82.73 L 558.88,85.43 L 557.52,86.75 L 554.33,89.17 L 552.66,90.35 L 548.89,92.49 L 546.93,93.52 L 542.60,95.34 L 540.36,96.22 L 535.50,97.72 L 533.00,98.43 L 527.62,99.60 L 519.03,100.96 L 517.79,101.11 L 514.90,101.36 L 513.40,101.47 L 510.09,101.64 L 506.71,101.78 L 499.32,101.84 L 495.63,101.83 L 488.52,101.59 L 486.82,101.50 L 483.67,101.29 L 482.16,101.17 M 1101.85,100.54 L 1099.55,100.21 L 1095.17,99.43 L 1093.01,99.02 L 1088.95,98.07 L 1086.95,97.58 L 1083.19,96.48 L 1081.35,95.90 L 1077.91,94.63 L 1076.22,93.98 L 1073.09,92.55 L 1071.56,91.81 L 1068.73,90.21 L 1067.36,89.40 L 1064.84,87.64 L 1061.42,84.82 L 1059.79,83.32 L 1056.99,79.75 L 1055.67,77.89 L 1053.51,73.73 L 1052.51,71.59 L 1051.00,66.99 L 1050.34,64.65 L 1049.51,59.77 L 1049.19,57.31 L 1049.06,52.30 L 1049.09,49.79 L 1049.69,44.80 L 1050.08,42.33 L 1051.41,37.53 L 1054.28,30.70 L 1055.00,29.32 L 1056.74,26.70 L 1057.66,25.41 L 1059.78,22.96 L 1060.88,21.76 L 1063.35,19.49 L 1064.63,18.38 L 1067.45,16.30 L 1068.90,15.28 L 1072.04,13.38 L 1073.65,12.46 L 1077.10,10.76 L 1078.87,9.93 L 1082.61,8.43 L 1084.52,7.70 L 1088.54,6.40 L 1090.58,5.78 L 1094.86,4.69 L 1097.03,4.17 L 1101.56,3.29 L 1103.85,2.88 L 1108.60,2.23 L 1111.00,1.92 L 1115.96,1.49 L 1118.47,1.30 L 1123.62,1.10 L 1126.22,1.03 L 1131.56,1.06 L 1134.24,1.10 L 1139.74,1.37 L 1148.14,2.05 L 1150.53,2.29 L 1155.07,2.92 L 1157.30,3.25 L 1161.54,4.06 L 1163.63,4.49 L 1167.56,5.49 L 1169.49,6.01 L 1173.13,7.19 L 1174.91,7.81 L 1178.25,9.18 L 1179.88,9.89 L 1182.91,11.46 L 1184.39,12.26 L 1187.13,14.01 L 1188.46,14.91 L 1190.89,16.85 L 1192.07,17.85 L 1194.21,19.98 L 1195.24,21.07 L 1197.08,23.39 L 1197.97,24.58 L 1199.51,27.09 L 1200.24,28.38 L 1201.49,31.08 L 1202.08,32.46 L 1203.03,35.36 L 1203.47,36.83 L 1204.12,39.93 L 1204.41,41.50 L 1204.78,44.78 L 1204.99,49.93 L 1204.99,51.58 L 1204.78,54.76 L 1204.65,56.33 L 1204.19,59.36 L 1203.92,60.85 L 1203.19,63.73 L 1202.80,65.14 L 1201.81,67.87 L 1201.29,69.21 L 1200.04,71.78 L 1199.38,73.05 L 1197.87,75.46 L 1197.08,76.65 L 1195.32,78.92 L 1194.40,80.03 L 1192.37,82.14 L 1191.32,83.18 L 1189.04,85.13 L 1187.86,86.09 L 1185.31,87.89 L 1184.01,88.77 L 1181.20,90.42 L 1179.77,91.22 L 1176.70,92.71 L 1175.14,93.44 L 1171.82,94.77 L 1170.13,95.42 L 1166.55,96.60 L 1164.73,97.17 L 1160.89,98.19 L 1154.85,99.54 L 1153.42,99.82 L 1149.81,100.31 L 1147.90,100.54 L 1143.53,100.91 L 1141.27,101.08 L 1136.40,101.33 L 1133.92,101.44 L 1128.81,101.57 L 1126.25,101.62 L 1121.17,101.62 L 1118.66,101.60 L 1113.87,101.47 L 1111.53,101.38 L 1107.30,101.11 L 1105.27,100.96 M 1146.83,83.06 L 1148.22,82.59 L 1150.74,81.62 L 1151.96,81.12 L 1154.16,80.08 L 1155.22,79.54 L 1157.14,78.40 L 1158.06,77.81 L 1159.73,76.54 L 1160.53,75.89 L 1161.97,74.47 L 1162.67,73.73 L 1163.94,72.13 L 1164.55,71.30 L 1165.66,69.48 L 1167.20,66.49 L 1167.69,65.44 L 1168.38,63.54 L 1168.68,62.58 L 1169.08,60.48 L 1169.24,59.36 L 1169.41,56.56 L 1169.45,55.79 L 1169.48,54.03 L 1169.50,51.00 L 1169.50,49.55 L 1169.41,46.91 L 1169.35,45.62 L 1169.12,43.27 L 1168.99,42.13 L 1168.61,40.03 L 1168.41,39.01 L 1167.88,37.12 L 1167.30,35.29 L 1165.62,32.08 L 1162.20,27.66 L 1161.42,26.84 L 1159.55,25.31 L 1158.57,24.57 L 1156.32,23.22 L 1155.16,22.57 L 1152.57,21.41 L 1151.24,20.85 L 1148.36,19.88 L 1146.88,19.42 L 1143.74,18.66 L 1142.13,18.31 L 1138.76,17.77 L 1137.06,17.53 L 1133.50,17.22 L 1128.00,17.03 L 1125.37,17.03 L 1120.43,17.35 L 1118.01,17.56 L 1113.50,18.29 L 1111.30,18.70 L 1107.23,19.84 L 1105.26,20.45 L 1101.66,21.98 L 1099.93,22.79 L 1096.81,24.71 L 1095.32,25.71 L 1092.71,28.00 L 1091.48,29.20 L 1089.39,31.86 L 1086.87,36.26 L 1086.37,37.37 L 1085.66,39.34 L 1085.34,40.33 L 1084.94,42.46 L 1084.77,43.59 L 1084.59,46.41 L 1084.56,47.19 L 1084.52,48.95 L 1084.50,52.00 L 1084.50,53.47 L 1084.60,56.16 L 1084.66,57.46 L 1084.89,59.84 L 1085.03,60.99 L 1085.41,63.11 L 1085.62,64.13 L 1086.18,66.03 L 1086.78,67.88 L 1088.54,71.12 L 1092.16,75.66 L 1092.63,76.14 L 1093.78,77.11 L 1094.40,77.59 L 1095.81,78.54 L 1097.28,79.49 L 1100.76,81.25 L 1102.56,82.08 L 1106.40,83.47 L 1112.09,84.94 L 1113.21,85.14 L 1115.85,85.42 L 1117.22,85.54 L 1120.26,85.66 L 1123.36,85.76 L 1130.07,85.52 L 1131.73,85.43 L 1134.98,85.16 L 1136.58,85.01 L 1139.57,84.62 L 1141.02,84.41 L 1143.60,83.92 L 1144.83,83.66 M 1249.67,100.43 L 1246.78,99.98 L 1241.58,98.97 L 1239.10,98.45 L 1234.85,97.33 L 1233.86,97.04 L 1232.07,96.46 L 1231.22,96.17 L 1229.73,95.57 L 1229.02,95.28 L 1227.84,94.68 L 1226.45,93.78 L 1225.92,93.37 L 1225.18,92.57 L 1224.85,92.16 L 1224.43,91.14 L 1224.26,90.58 L 1224.09,89.06 L 1224.00,85.91 L 1224.00,84.58 L 1224.07,82.70 L 1224.13,81.87 L 1224.40,80.76 L 1224.56,80.27 L 1225.12,79.63 L 1226.40,78.86 L 1226.88,78.64 L 1227.93,78.43 L 1228.49,78.37 L 1229.88,78.50 L 1230.65,78.62 L 1232.66,79.14 L 1233.21,79.29 L 1234.48,79.68 L 1236.66,80.39 L 1238.77,81.09 L 1243.14,82.31 L 1245.33,82.89 L 1249.78,83.85 L 1252.01,84.30 L 1256.46,85.00 L 1258.67,85.32 L 1263.01,85.74 L 1265.15,85.92 L 1269.29,86.07 L 1271.32,86.10 L 1275.15,85.96 L 1277.01,85.85 L 1280.44,85.41 L 1285.02,84.40 L 1286.49,83.97 L 1289.37,82.53 L 1290.77,81.75 L 1293.22,79.88 L 1294.35,78.92 L 1295.96,76.95 L 1296.29,76.46 L 1296.73,75.53 L 1297.00,74.23 L 1297.00,73.43 L 1296.29,71.70 L 1295.83,70.82 L 1294.32,69.06 L 1293.48,68.19 L 1291.33,66.57 L 1287.57,64.49 L 1287.22,64.34 L 1286.24,63.96 L 1285.70,63.75 L 1284.38,63.29 L 1282.99,62.81 L 1279.44,61.67 L 1277.57,61.09 L 1273.42,59.85 L 1267.00,58.04 L 1264.13,57.25 L 1258.92,55.70 L 1256.40,54.92 L 1251.86,53.36 L 1249.68,52.58 L 1245.78,50.99 L 1243.92,50.20 L 1240.64,48.58 L 1239.08,47.76 L 1236.38,46.08 L 1235.10,45.24 L 1232.96,43.49 L 1231.95,42.60 L 1230.33,40.77 L 1228.45,37.90 L 1228.21,37.43 L 1227.82,36.25 L 1227.64,35.62 L 1227.38,34.19 L 1227.15,32.70 L 1227.05,29.34 L 1227.07,27.65 L 1227.47,24.40 L 1227.60,23.62 L 1227.95,22.22 L 1228.61,20.41 L 1229.06,19.47 L 1230.30,17.64 L 1230.97,16.73 L 1232.64,14.99 L 1233.53,14.14 L 1235.60,12.51 L 1236.69,11.71 L 1239.13,10.20 L 1240.40,9.46 L 1243.18,8.10 L 1244.61,7.44 L 1247.71,6.24 L 1249.29,5.66 L 1252.66,4.63 L 1258.00,3.32 L 1259.40,3.02 L 1262.89,2.54 L 1264.72,2.32 L 1268.87,1.99 L 1271.00,1.84 L 1275.57,1.66 L 1277.88,1.59 L 1282.62,1.55 L 1284.98,1.55 L 1289.63,1.67 L 1291.92,1.74 L 1296.24,2.00 L 1298.34,2.15 L 1302.07,2.56 L 1306.75,3.34 L 1308.20,3.67 L 1310.69,4.27 L 1311.87,4.56 L 1313.85,5.12 L 1314.79,5.40 L 1316.33,5.95 L 1317.05,6.23 L 1318.21,6.80 L 1318.75,7.10 L 1319.59,7.73 L 1319.97,8.05 L 1320.54,8.77 L 1321.55,11.42 L 1321.77,12.59 L 1321.85,15.05 L 1321.84,16.27 L 1321.51,18.53 L 1321.30,19.60 L 1320.65,21.27 L 1320.46,21.64 L 1320.05,22.18 L 1319.37,22.69 L 1319.16,22.77 L 1318.10,22.71 L 1317.48,22.64 L 1315.75,22.32 L 1314.83,22.13 L 1312.67,21.61 L 1309.18,20.62 L 1307.07,19.98 L 1302.86,18.91 L 1300.77,18.41 L 1296.64,17.64 L 1294.59,17.29 L 1290.62,16.80 L 1288.65,16.60 L 1284.88,16.42 L 1283.02,16.36 L 1279.52,16.48 L 1277.81,16.57 L 1274.65,16.99 L 1273.12,17.23 L 1270.35,17.95 L 1266.72,19.37 L 1265.62,19.92 L 1263.87,21.14 L 1263.06,21.77 L 1261.89,23.10 L 1261.38,23.77 L 1260.80,25.18 L 1260.58,25.88 L 1260.57,27.31 L 1260.64,28.03 L 1261.21,29.45 L 1261.56,30.16 L 1262.70,31.53 L 1263.34,32.21 L 1265.04,33.50 L 1268.23,35.28 L 1268.60,35.45 L 1269.57,35.85 L 1270.10,36.06 L 1271.37,36.52 L 1272.70,37.00 L 1276.00,38.10 L 1277.73,38.65 L 1281.52,39.80 L 1287.28,41.43 L 1289.02,41.89 L 1292.26,42.79 L 1293.85,43.23 L 1296.81,44.08 L 1299.71,44.93 L 1304.73,46.53 L 1307.12,47.32 L 1311.23,48.85 L 1313.17,49.62 L 1316.48,51.14 L 1318.04,51.91 L 1320.67,53.49 L 1321.91,54.29 L 1323.99,55.99 L 1324.96,56.86 L 1326.60,58.72 L 1328.71,61.78 L 1329.25,62.70 L 1330.00,64.22 L 1330.32,64.97 L 1330.70,66.44 L 1330.85,67.20 L 1330.94,68.98 L 1330.82,72.42 L 1330.70,74.41 L 1329.91,77.92 L 1329.43,79.60 L 1327.84,82.61 L 1326.94,84.07 L 1324.46,86.74 L 1319.62,90.55 L 1317.79,91.77 L 1313.46,93.94 L 1311.20,94.97 L 1306.14,96.77 L 1303.52,97.61 L 1297.85,99.01 L 1294.95,99.66 L 1288.83,100.65 L 1285.72,101.09 L 1279.28,101.64 L 1276.03,101.86 L 1269.43,101.95 L 1266.12,101.94 L 1259.49,101.56 L 1256.18,101.31 M 55.00,100.26 L 54.04,100.14 L 52.17,99.65 L 51.74,99.52 L 51.02,99.23 L 50.25,98.80 L 50.13,98.70 L 49.92,98.07 L 49.82,97.68 L 49.65,96.41 L 49.57,95.68 L 49.43,93.66 L 49.37,92.54 L 49.26,89.67 L 49.22,88.11 L 49.14,84.29 L 49.13,83.27 L 49.10,81.04 L 49.08,79.89 L 49.06,77.38 L 49.05,76.10 L 49.03,73.31 L 49.03,71.88 L 49.01,68.79 L 49.01,67.22 L 49.00,63.82 L 49.00,58.38 L 49.00,19.00 L 28.22,19.00 L 26.67,19.00 L 23.85,19.00 L 22.49,18.99 L 20.02,18.98 L 18.83,18.97 L 16.69,18.93 L 15.66,18.91 L 13.82,18.85 L 12.94,18.81 L 11.39,18.72 L 10.64,18.66 L 9.35,18.52 L 8.11,18.37 L 6.32,17.90 L 5.51,17.64 L 4.44,16.90 L 3.98,16.49 L 3.46,15.41 L 3.24,14.83 L 3.07,13.36 L 3.00,10.64 L 3.00,9.20 L 3.35,6.59 L 3.46,6.00 L 3.73,5.08 L 4.20,4.20 L 4.31,4.09 L 5.24,3.89 L 5.54,3.84 L 6.32,3.75 L 6.75,3.71 L 7.81,3.63 L 8.38,3.59 L 9.73,3.52 L 10.44,3.49 L 12.10,3.42 L 12.97,3.39 L 14.95,3.34 L 15.99,3.31 L 18.31,3.26 L 19.52,3.24 L 22.20,3.20 L 23.58,3.18 L 26.64,3.14 L 28.21,3.12 L 31.65,3.10 L 33.42,3.08 L 37.27,3.06 L 39.24,3.05 L 43.51,3.03 L 45.69,3.03 L 50.40,3.01 L 52.80,3.01 L 57.96,3.00 L 66.22,3.00 L 127.05,3.00 L 128.02,5.57 L 128.38,6.51 L 128.79,8.56 L 128.94,9.59 L 128.94,11.65 L 128.88,12.65 L 128.48,14.49 L 127.44,16.78 L 127.06,17.32 L 126.16,18.04 L 125.87,18.20 L 125.04,18.44 L 124.57,18.55 L 123.26,18.71 L 122.52,18.78 L 120.56,18.87 L 119.48,18.91 L 116.69,18.96 L 115.18,18.98 L 111.41,18.99 L 110.39,19.00 L 108.15,19.00 L 104.44,19.00 L 83.00,19.00 L 82.98,57.75 L 82.98,60.41 L 82.96,65.56 L 82.95,68.10 L 82.91,72.90 L 82.89,75.25 L 82.83,79.61 L 82.80,81.72 L 82.72,85.52 L 82.68,87.33 L 82.59,90.46 L 82.54,91.93 L 82.44,94.28 L 82.39,95.34 L 82.28,96.80 L 82.11,97.86 L 81.90,98.18 L 80.95,98.76 L 80.39,99.03 L 78.81,99.51 L 77.96,99.74 L 75.87,100.11 L 74.77,100.29 L 72.29,100.54 L 71.00,100.66 L 68.24,100.79 L 66.83,100.84 L 63.89,100.83 L 60.94,100.79 M 116.50,100.15 L 115.92,100.01 L 115.06,99.70 L 114.68,99.53 L 114.18,99.12 L 113.97,98.89 L 113.76,98.32 L 113.74,97.21 L 113.75,97.13 L 113.91,96.73 L 114.01,96.48 L 114.35,95.78 L 114.55,95.39 L 115.06,94.40 L 115.33,93.88 L 116.00,92.63 L 116.35,91.98 L 117.16,90.49 L 117.59,89.72 L 118.53,88.02 L 119.51,86.26 L 121.81,82.18 L 123.02,80.06 L 125.70,75.36 L 127.08,72.95 L 130.04,67.81 L 131.55,65.19 L 134.71,59.75 L 136.30,57.01 L 139.55,51.44 L 142.81,45.88 L 149.20,35.04 L 150.76,32.42 L 153.72,27.44 L 155.17,25.01 L 157.86,20.55 L 159.15,18.40 L 161.46,14.62 L 162.55,12.83 L 164.38,9.90 L 164.81,9.22 L 165.55,8.06 L 165.90,7.52 L 166.49,6.62 L 166.77,6.21 L 167.19,5.60 L 167.64,5.04 L 168.22,4.43 L 169.28,3.62 L 169.59,3.45 L 170.38,3.19 L 170.81,3.07 L 171.96,2.89 L 172.59,2.81 L 174.26,2.71 L 175.17,2.67 L 177.50,2.62 L 178.77,2.60 L 181.92,2.58 L 187.74,2.58 L 190.18,2.58 L 194.84,2.63 L 197.10,2.67 L 201.06,2.79 L 201.99,2.82 L 203.63,2.89 L 204.41,2.93 L 205.72,3.01 L 206.33,3.05 L 207.26,3.14 L 208.16,3.29 L 208.44,3.36 L 209.14,3.88 L 209.53,4.22 L 210.56,5.41 L 211.12,6.11 L 212.57,8.16 L 212.96,8.73 L 213.86,10.07 L 214.32,10.78 L 215.37,12.40 L 215.91,13.25 L 217.11,15.17 L 217.74,16.17 L 219.13,18.42 L 219.84,19.59 L 221.42,22.19 L 222.24,23.54 L 224.03,26.51 L 224.95,28.04 L 226.96,31.41 L 228.00,33.15 L 230.25,36.94 L 231.41,38.89 L 233.92,43.12 L 237.98,49.99 L 239.85,53.15 L 243.43,59.26 L 245.19,62.27 L 248.51,67.98 L 250.12,70.77 L 253.09,75.95 L 254.52,78.46 L 257.07,82.97 L 258.29,85.13 L 260.35,88.85 L 260.83,89.72 L 261.69,91.30 L 262.10,92.06 L 262.81,93.39 L 263.14,94.03 L 263.69,95.10 L 263.95,95.60 L 264.33,96.40 L 264.51,96.76 L 264.72,97.27 L 264.82,97.68 L 264.76,98.01 L 264.38,98.59 L 264.15,98.87 L 263.43,99.34 L 263.02,99.57 L 261.93,99.95 L 261.34,100.12 L 259.86,100.40 L 259.08,100.52 L 257.20,100.71 L 256.21,100.79 L 253.91,100.88 L 252.71,100.91 L 249.97,100.91 L 245.35,100.81 L 243.30,100.74 L 239.89,100.55 L 238.30,100.45 L 235.80,100.18 L 234.66,100.04 L 233.04,99.69 L 231.58,99.07 L 231.47,98.97 L 231.14,98.59 L 230.96,98.37 L 230.51,97.76 L 230.03,97.10 L 228.79,95.22 L 228.14,94.20 L 226.67,91.79 L 224.37,87.86 L 218.79,78.00 L 187.64,78.00 L 156.50,78.01 L 151.08,88.02 L 150.33,89.40 L 148.86,92.00 L 148.14,93.26 L 146.83,95.44 L 146.21,96.46 L 145.22,97.97 L 145.00,98.29 L 144.63,98.78 L 144.24,99.22 L 144.14,99.30 L 143.71,99.46 L 143.46,99.54 L 142.77,99.69 L 142.02,99.84 L 139.88,100.09 L 138.72,100.22 L 135.99,100.41 L 134.57,100.50 L 131.52,100.62 L 129.99,100.67 L 126.92,100.71 L 125.40,100.73 L 122.59,100.68 L 121.24,100.64 L 118.98,100.50 L 117.94,100.41 M 208.15,57.75 L 207.94,57.39 L 207.38,56.39 L 207.07,55.85 L 206.33,54.54 L 205.94,53.85 L 205.04,52.27 L 204.58,51.46 L 203.58,49.68 L 202.55,47.85 L 200.27,43.82 L 196.78,37.63 L 195.63,35.59 L 193.46,31.85 L 192.41,30.07 L 190.59,27.11 L 190.17,26.43 L 189.43,25.28 L 189.07,24.74 L 188.49,23.89 L 188.22,23.51 L 187.82,23.00 L 187.46,22.69 L 187.35,22.68 L 186.87,23.18 L 186.59,23.52 L 185.75,24.71 L 185.29,25.39 L 184.10,27.28 L 183.47,28.31 L 181.92,30.90 L 181.11,32.27 L 179.21,35.55 L 178.21,37.27 L 175.96,41.24 L 174.79,43.31 L 172.18,47.98 L 167.86,55.75 L 163.86,63.00 L 187.50,63.00 L 211.15,63.00 L 208.15,57.75 M 848.50,100.16 L 847.40,99.96 L 845.31,99.42 L 844.83,99.28 L 844.05,99.01 L 843.25,98.66 L 843.13,98.58 L 842.92,97.93 L 842.82,97.52 L 842.65,96.10 L 842.56,95.28 L 842.43,92.97 L 842.40,92.33 L 842.34,90.86 L 842.31,90.09 L 842.26,88.36 L 842.24,87.46 L 842.19,85.44 L 842.17,84.40 L 842.14,82.09 L 842.12,80.89 L 842.09,78.27 L 842.08,76.92 L 842.06,73.97 L 842.05,72.45 L 842.03,69.16 L 842.02,67.47 L 842.01,63.83 L 842.01,61.96 L 842.00,57.94 L 842.00,51.48 L 842.00,5.07 L 844.25,3.87 L 844.45,3.76 L 845.09,3.57 L 845.45,3.48 L 846.38,3.31 L 847.37,3.15 L 850.02,2.92 L 851.43,2.81 L 854.66,2.69 L 856.31,2.64 L 859.77,2.62 L 861.49,2.63 L 864.82,2.72 L 866.44,2.78 L 869.30,2.97 L 870.64,3.08 L 872.68,3.39 L 873.13,3.47 L 873.80,3.65 L 874.45,3.96 L 874.62,4.10 L 874.90,4.66 L 875.04,5.00 L 875.26,6.15 L 875.37,6.82 L 875.54,8.79 L 875.58,9.35 L 875.64,10.65 L 875.68,11.34 L 875.73,12.93 L 875.76,13.76 L 875.81,15.67 L 875.83,16.66 L 875.87,18.91 L 875.89,20.08 L 875.91,22.71 L 875.93,24.07 L 875.95,27.10 L 875.96,28.67 L 875.97,32.13 L 875.98,33.92 L 875.99,37.85 L 875.99,39.87 L 876.00,44.29 L 876.00,51.50 L 876.00,53.92 L 876.00,58.39 L 876.00,60.57 L 875.99,64.59 L 875.98,66.55 L 875.97,70.14 L 875.96,71.89 L 875.95,75.08 L 875.94,76.62 L 875.91,79.43 L 875.90,80.79 L 875.86,83.23 L 875.85,84.41 L 875.81,86.52 L 875.79,87.54 L 875.74,89.34 L 875.71,90.20 L 875.65,91.71 L 875.62,92.44 L 875.55,93.68 L 875.48,94.87 L 875.31,96.54 L 875.21,97.28 L 874.99,98.19 L 874.59,98.93 L 874.38,99.10 L 873.22,99.43 L 872.53,99.58 L 870.61,99.86 L 869.57,99.99 L 867.11,100.21 L 865.83,100.31 L 863.07,100.46 L 860.27,100.59 L 854.77,100.60 L 853.47,100.58 L 851.20,100.46 L 850.14,100.39 M 919.00,100.40 L 918.31,100.27 L 916.57,99.93 L 914.25,99.45 L 912.00,98.96 L 912.00,52.60 L 912.00,49.98 L 912.00,45.17 L 912.00,42.84 L 912.01,38.57 L 912.01,36.50 L 912.02,32.74 L 912.03,30.92 L 912.05,27.63 L 912.06,26.05 L 912.08,23.21 L 912.10,21.84 L 912.13,19.41 L 912.15,18.24 L 912.19,16.18 L 912.21,15.20 L 912.27,13.48 L 912.29,12.67 L 912.36,11.26 L 912.39,10.60 L 912.47,9.47 L 912.56,8.40 L 912.77,6.96 L 912.88,6.33 L 913.15,5.56 L 913.66,4.87 L 913.82,4.73 L 914.47,4.50 L 914.86,4.38 L 916.06,4.19 L 916.74,4.10 L 918.60,3.95 L 919.63,3.88 L 922.29,3.77 L 923.74,3.72 L 927.33,3.64 L 928.29,3.62 L 930.41,3.59 L 931.50,3.58 L 933.89,3.56 L 935.13,3.55 L 937.81,3.53 L 939.20,3.52 L 942.19,3.51 L 943.73,3.51 L 947.05,3.50 L 952.41,3.50 L 954.44,3.50 L 958.19,3.50 L 960.02,3.51 L 963.39,3.51 L 965.03,3.52 L 968.04,3.53 L 969.51,3.54 L 972.19,3.56 L 973.49,3.57 L 975.86,3.60 L 977.02,3.62 L 979.12,3.66 L 981.15,3.70 L 984.52,3.82 L 986.10,3.88 L 988.73,4.05 L 989.97,4.14 L 992.07,4.38 L 997.50,5.35 L 999.49,5.81 L 1003.15,6.85 L 1004.93,7.39 L 1008.18,8.60 L 1009.75,9.22 L 1012.58,10.59 L 1013.94,11.30 L 1016.35,12.83 L 1017.50,13.62 L 1019.48,15.31 L 1020.42,16.17 L 1021.98,18.03 L 1022.70,18.97 L 1023.83,20.98 L 1025.04,24.17 L 1025.47,25.73 L 1025.78,28.76 L 1025.85,30.26 L 1025.48,33.12 L 1025.21,34.53 L 1024.16,37.21 L 1023.56,38.52 L 1021.86,40.98 L 1020.94,42.18 L 1018.61,44.41 L 1017.36,45.49 L 1014.42,47.46 L 1012.87,48.41 L 1009.33,50.09 L 1003.37,52.27 L 1002.36,52.58 L 1000.51,53.19 L 999.63,53.49 L 998.17,54.04 L 997.51,54.31 L 996.59,54.74 L 996.01,55.17 L 996.01,55.26 L 996.28,55.53 L 996.46,55.66 L 997.04,55.99 L 999.51,57.00 L 1000.00,57.16 L 1001.26,57.76 L 1001.93,58.09 L 1003.43,58.95 L 1007.89,62.01 L 1008.27,62.31 L 1009.18,63.16 L 1009.66,63.63 L 1010.75,64.78 L 1011.32,65.39 L 1012.56,66.80 L 1013.19,67.53 L 1014.54,69.15 L 1015.92,70.81 L 1018.85,74.55 L 1020.32,76.46 L 1023.26,80.42 L 1024.71,82.39 L 1027.37,86.20 L 1028.65,88.06 L 1030.77,91.34 L 1031.26,92.11 L 1032.08,93.49 L 1032.46,94.15 L 1033.05,95.27 L 1033.31,95.79 L 1033.64,96.60 L 1033.79,97.43 L 1033.74,97.78 L 1033.43,98.39 L 1033.25,98.67 L 1032.64,99.16 L 1032.29,99.39 L 1031.35,99.78 L 1029.50,100.29 L 1028.97,100.41 L 1027.17,100.57 L 1026.17,100.64 L 1023.63,100.72 L 1022.30,100.75 L 1019.31,100.76 L 1017.79,100.75 L 1014.63,100.69 L 1013.06,100.65 L 1010.03,100.53 L 1008.56,100.46 L 1005.93,100.28 L 1004.70,100.19 L 1002.77,99.97 L 1002.34,99.91 L 1001.66,99.78 L 1000.96,99.58 L 1000.85,99.54 L 1000.47,99.19 L 1000.25,98.97 L 999.67,98.31 L 999.35,97.94 L 998.59,97.00 L 998.20,96.50 L 997.29,95.32 L 996.36,94.08 L 994.18,91.05 L 990.66,85.95 L 989.28,83.90 L 986.88,80.40 L 985.74,78.74 L 983.75,75.94 L 982.80,74.62 L 981.12,72.42 L 980.31,71.38 L 978.84,69.67 L 978.13,68.87 L 976.80,67.54 L 976.13,66.92 L 974.83,65.87 L 970.59,63.29 L 969.49,62.73 L 967.59,61.94 L 966.65,61.59 L 964.64,61.14 L 963.57,60.95 L 960.89,60.75 L 960.15,60.71 L 958.45,60.65 L 955.50,60.60 L 945.50,60.50 L 945.23,79.65 L 945.20,81.78 L 945.14,85.38 L 945.10,87.07 L 945.03,89.86 L 944.99,91.17 L 944.90,93.27 L 944.84,94.24 L 944.72,95.74 L 944.65,96.43 L 944.47,97.44 L 944.38,97.90 L 944.16,98.53 L 943.23,99.50 L 942.97,99.60 L 941.72,99.80 L 941.01,99.90 L 939.04,100.08 L 937.99,100.17 L 935.55,100.32 L 934.29,100.39 L 931.62,100.50 L 930.28,100.55 L 927.63,100.62 L 926.34,100.64 L 923.95,100.65 L 922.82,100.64 L 920.95,100.58 L 920.10,100.54 M 972.84,44.96 L 974.92,44.62 L 978.70,43.63 L 980.52,43.09 L 983.63,41.76 L 985.08,41.06 L 987.33,39.48 L 987.83,39.07 L 988.64,38.22 L 989.54,36.92 L 990.14,35.76 L 990.80,33.40 L 991.04,32.22 L 990.97,29.94 L 990.85,28.82 L 990.09,26.74 L 988.16,24.01 L 987.60,23.44 L 986.33,22.45 L 985.68,21.97 L 984.19,21.15 L 983.42,20.76 L 981.65,20.11 L 980.73,19.80 L 978.63,19.30 L 977.52,19.07 L 975.02,18.70 L 973.71,18.54 L 970.74,18.30 L 969.19,18.20 L 965.70,18.07 L 959.82,18.00 L 945.00,18.00 L 945.00,32.00 L 945.00,46.00 L 955.75,45.99 L 958.71,45.99 L 965.20,45.69 L 966.75,45.59 L 969.53,45.36 L 970.83,45.23 M 289.22,98.44 L 287.00,96.89 L 287.00,51.50 L 287.00,6.11 L 289.22,4.56 L 289.46,4.39 L 290.11,4.11 L 290.47,3.98 L 291.48,3.75 L 292.04,3.65 L 293.56,3.48 L 294.39,3.40 L 296.55,3.28 L 297.72,3.23 L 300.67,3.15 L 302.26,3.11 L 306.14,3.06 L 307.18,3.05 L 309.45,3.03 L 310.62,3.03 L 313.17,3.02 L 314.49,3.01 L 317.34,3.01 L 321.97,3.01 L 326.17,3.01 L 334.51,3.09 L 336.55,3.12 L 340.49,3.18 L 342.43,3.22 L 346.07,3.30 L 347.84,3.35 L 351.09,3.45 L 352.65,3.51 L 355.38,3.62 L 356.67,3.68 L 358.78,3.81 L 361.14,4.01 L 364.07,4.34 L 369.40,5.29 L 371.97,5.81 L 376.59,7.12 L 378.80,7.82 L 382.68,9.48 L 384.53,10.36 L 387.66,12.35 L 389.12,13.39 L 391.48,15.71 L 392.56,16.91 L 394.13,19.53 L 394.81,20.89 L 395.57,23.81 L 395.79,28.52 L 395.70,29.58 L 395.32,31.54 L 395.08,32.49 L 394.39,34.26 L 394.01,35.13 L 392.99,36.74 L 392.44,37.52 L 391.07,38.99 L 390.34,39.71 L 388.60,41.06 L 387.68,41.72 L 385.53,42.98 L 384.41,43.60 L 381.85,44.78 L 377.50,46.51 L 376.94,46.71 L 376.27,46.98 L 376.17,47.05 L 376.18,47.20 L 376.23,47.28 L 376.62,47.48 L 376.87,47.59 L 377.71,47.88 L 378.20,48.04 L 379.58,48.46 L 380.35,48.70 L 382.36,49.28 L 386.18,50.40 L 387.59,50.81 L 390.18,51.80 L 391.44,52.32 L 393.74,53.51 L 394.86,54.13 L 396.87,55.50 L 397.83,56.20 L 399.54,57.72 L 400.36,58.50 L 401.76,60.15 L 402.42,60.99 L 403.51,62.75 L 404.02,63.64 L 404.79,65.47 L 405.14,66.40 L 405.60,68.29 L 405.79,69.24 L 405.92,71.16 L 405.94,72.12 L 405.74,74.05 L 405.60,75.02 L 405.07,76.93 L 404.76,77.88 L 403.89,79.75 L 403.41,80.68 L 402.20,82.49 L 401.55,83.38 L 399.98,85.09 L 399.16,85.94 L 397.24,87.54 L 393.96,89.78 L 392.26,90.80 L 388.79,92.57 L 387.03,93.41 L 383.26,94.83 L 381.32,95.50 L 377.04,96.60 L 374.82,97.12 L 369.80,97.95 L 368.49,98.14 L 365.69,98.48 L 364.26,98.64 L 361.20,98.92 L 359.64,99.05 L 356.29,99.27 L 354.58,99.37 L 350.92,99.55 L 349.05,99.62 L 345.04,99.75 L 342.99,99.81 L 338.62,99.89 L 336.38,99.92 L 331.61,99.97 L 323.97,99.99 L 322.23,99.99 L 319.02,99.99 L 317.45,99.99 L 314.57,99.98 L 313.17,99.98 L 310.59,99.97 L 309.35,99.96 L 307.07,99.94 L 305.97,99.93 L 303.96,99.90 L 303.00,99.89 L 301.25,99.86 L 299.56,99.82 L 296.88,99.72 L 295.63,99.66 L 293.72,99.52 L 292.84,99.44 L 291.54,99.25 L 290.95,99.14 L 290.12,98.89 L 289.75,98.76 M 363.53,81.82 L 364.90,81.11 L 367.06,79.58 L 368.05,78.80 L 369.48,77.11 L 370.11,76.23 L 370.85,74.31 L 371.22,71.10 L 371.19,69.86 L 370.59,67.65 L 370.19,66.59 L 368.86,64.73 L 368.09,63.83 L 365.99,62.30 L 364.83,61.57 L 361.92,60.35 L 360.36,59.78 L 356.61,58.86 L 354.63,58.44 L 350.02,57.82 L 347.60,57.55 L 342.08,57.21 L 332.75,57.01 L 319.00,57.00 L 319.00,71.09 L 319.00,85.18 L 338.75,84.82 L 339.94,84.80 L 342.12,84.76 L 343.17,84.74 L 345.09,84.70 L 346.94,84.66 L 349.98,84.56 L 351.40,84.51 L 353.69,84.39 L 354.75,84.32 L 356.47,84.15 L 357.27,84.05 L 358.58,83.80 L 359.20,83.66 L 360.29,83.32 L 361.35,82.94 M 351.72,41.49 L 353.36,41.00 L 356.11,39.66 L 357.40,38.94 L 359.42,37.22 L 360.35,36.32 L 361.64,34.35 L 362.19,33.34 L 362.71,31.24 L 362.88,30.19 L 362.63,28.08 L 362.41,27.04 L 361.36,25.05 L 360.73,24.09 L 358.86,22.35 L 355.11,20.14 L 354.02,19.67 L 351.98,19.01 L 350.92,18.72 L 348.33,18.36 L 347.61,18.29 L 345.93,18.18 L 345.04,18.13 L 342.94,18.07 L 341.82,18.04 L 339.20,18.01 L 334.56,18.00 L 319.00,18.00 L 319.00,30.50 L 319.00,43.00 L 332.82,43.00 L 335.17,43.00 L 339.26,42.91 L 341.20,42.85 L 344.50,42.63 L 346.06,42.51 L 348.63,42.16 L 349.83,41.97 M 608.00,99.31 L 607.51,99.13 L 606.70,98.72 L 606.32,98.47 L 605.72,97.64 L 605.44,97.14 L 605.01,95.53 L 604.91,95.06 L 604.74,93.92 L 604.66,93.31 L 604.52,91.84 L 604.46,91.07 L 604.36,89.24 L 604.31,88.27 L 604.23,86.03 L 604.19,84.86 L 604.14,82.16 L 604.11,80.75 L 604.07,77.56 L 604.05,75.89 L 604.03,72.15 L 604.02,70.21 L 604.01,65.87 L 604.01,63.63 L 604.00,58.66 L 604.00,50.43 L 604.00,47.96 L 604.00,43.39 L 604.00,41.18 L 604.01,37.11 L 604.01,35.13 L 604.03,31.53 L 604.03,29.79 L 604.05,26.62 L 604.06,25.09 L 604.09,22.33 L 604.10,21.00 L 604.13,18.62 L 604.15,17.47 L 604.19,15.44 L 604.21,14.47 L 604.27,12.76 L 604.29,11.95 L 604.36,10.54 L 604.39,9.86 L 604.46,8.71 L 604.54,7.63 L 604.74,6.13 L 604.84,5.47 L 605.09,4.65 L 605.55,3.96 L 605.68,3.85 L 606.20,3.65 L 606.50,3.55 L 607.32,3.38 L 608.21,3.21 L 610.71,2.96 L 612.05,2.85 L 615.19,2.70 L 616.81,2.64 L 620.25,2.60 L 621.97,2.59 L 625.35,2.66 L 627.00,2.71 L 629.99,2.89 L 631.39,2.99 L 633.63,3.29 L 634.12,3.37 L 634.91,3.55 L 635.75,3.85 L 638.00,5.07 L 638.00,44.54 L 638.00,84.00 L 664.88,84.00 L 666.78,84.00 L 670.24,84.00 L 671.91,84.00 L 674.91,84.01 L 676.35,84.01 L 678.94,84.03 L 680.18,84.05 L 682.37,84.09 L 683.43,84.12 L 685.26,84.20 L 686.14,84.24 L 687.65,84.36 L 688.37,84.42 L 689.59,84.59 L 690.17,84.68 L 691.13,84.91 L 692.02,85.15 L 693.17,85.85 L 693.65,86.24 L 694.16,87.27 L 694.36,87.84 L 694.48,89.29 L 694.50,92.00 L 694.50,93.06 L 694.52,94.78 L 694.50,95.58 L 694.18,96.83 L 693.94,97.40 L 692.88,98.26 L 692.55,98.45 L 691.67,98.77 L 691.20,98.93 L 690.00,99.18 L 689.36,99.29 L 687.78,99.48 L 686.94,99.56 L 684.94,99.69 L 683.89,99.75 L 681.41,99.83 L 680.10,99.87 L 677.10,99.91 L 675.53,99.93 L 671.94,99.95 L 670.07,99.96 L 665.86,99.95 L 663.67,99.95 L 658.78,99.94 L 650.63,99.92 L 647.80,99.92 L 642.34,99.89 L 639.64,99.88 L 634.54,99.85 L 632.04,99.83 L 627.42,99.79 L 625.17,99.76 L 621.14,99.71 L 619.21,99.68 L 615.89,99.62 L 614.32,99.59 L 611.83,99.52 L 610.69,99.49 L 609.14,99.42 L 608.82,99.40 L 608.37,99.36 L 608.17,99.34 M 717.22,98.44 L 715.00,96.89 L 715.00,51.50 L 715.00,6.11 L 717.22,4.56 L 717.46,4.39 L 718.20,4.10 L 718.64,3.97 L 719.93,3.74 L 720.66,3.64 L 722.72,3.47 L 723.30,3.43 L 724.63,3.36 L 725.33,3.33 L 726.94,3.27 L 727.78,3.24 L 729.69,3.20 L 730.68,3.17 L 732.91,3.14 L 734.07,3.12 L 736.66,3.09 L 738.00,3.07 L 740.98,3.05 L 742.52,3.04 L 745.90,3.03 L 747.65,3.02 L 751.48,3.01 L 753.45,3.01 L 757.74,3.00 L 764.75,3.00 L 810.05,3.00 L 811.02,5.57 L 811.38,6.50 L 811.78,8.38 L 811.93,9.31 L 811.93,11.12 L 811.88,12.00 L 811.48,13.64 L 810.44,15.78 L 810.25,16.05 L 809.87,16.51 L 809.66,16.72 L 809.05,17.06 L 808.70,17.21 L 807.63,17.45 L 807.02,17.56 L 805.23,17.72 L 804.23,17.79 L 801.49,17.88 L 800.73,17.90 L 798.99,17.93 L 798.08,17.94 L 796.02,17.96 L 794.94,17.97 L 792.52,17.98 L 791.27,17.99 L 788.46,18.00 L 787.01,18.00 L 783.78,18.00 L 778.44,18.00 L 748.00,18.00 L 748.00,30.00 L 748.00,42.00 L 773.98,42.00 L 799.95,42.00 L 801.61,44.52 L 802.08,45.25 L 802.59,47.36 L 802.78,48.48 L 802.75,50.89 L 802.67,52.08 L 802.14,54.14 L 801.98,54.60 L 801.57,55.35 L 800.83,56.13 L 800.73,56.19 L 800.03,56.30 L 799.60,56.35 L 798.28,56.46 L 797.55,56.51 L 795.67,56.60 L 794.67,56.65 L 792.33,56.73 L 791.10,56.77 L 788.35,56.83 L 786.93,56.86 L 783.85,56.91 L 773.75,56.98 L 748.00,57.00 L 748.00,71.00 L 748.00,85.00 L 778.80,85.00 L 781.63,85.00 L 786.63,85.02 L 789.03,85.03 L 793.22,85.06 L 795.22,85.09 L 798.63,85.15 L 800.25,85.18 L 802.95,85.27 L 804.22,85.32 L 806.25,85.43 L 807.19,85.49 L 808.61,85.64 L 809.25,85.72 L 810.10,85.90 L 810.80,86.20 L 810.99,86.39 L 811.31,87.12 L 811.46,87.54 L 811.68,88.61 L 811.87,89.74 L 811.97,92.50 L 811.97,93.88 L 811.68,96.39 L 811.58,96.96 L 811.31,97.88 L 810.80,98.80 L 810.69,98.91 L 809.94,99.11 L 809.47,99.20 L 807.93,99.37 L 807.06,99.44 L 804.66,99.57 L 803.34,99.64 L 799.97,99.74 L 799.07,99.76 L 797.06,99.80 L 796.03,99.82 L 793.75,99.86 L 792.58,99.87 L 790.02,99.90 L 788.71,99.92 L 785.86,99.94 L 784.39,99.95 L 781.24,99.97 L 779.62,99.97 L 776.16,99.99 L 774.38,99.99 L 770.59,100.00 L 764.52,100.00 L 762.07,100.00 L 757.56,100.00 L 755.36,100.00 L 751.32,99.99 L 749.36,99.98 L 745.77,99.97 L 744.04,99.97 L 740.87,99.95 L 739.34,99.94 L 736.58,99.91 L 735.24,99.90 L 732.85,99.86 L 731.69,99.85 L 729.64,99.80 L 728.65,99.78 L 726.90,99.73 L 726.07,99.70 L 724.61,99.64 L 723.91,99.61 L 722.71,99.53 L 721.56,99.45 L 719.92,99.26 L 719.19,99.15 L 718.20,98.90 L 717.77,98.76 Z" fill="rgba(146,0,122,1)"/>
</g>
</svg>